<?xml version="1.0" encoding="UTF-8"?>
<svg id="Warstwa_2" xmlns="http://www.w3.org/2000/svg" version="1.1" viewBox="0 0 2902.7 2902.7">
  <!-- Generator: Adobe Illustrator 29.5.1, SVG Export Plug-In . SVG Version: 2.1.0 Build 141)  -->
  <defs>
    <style>
      .st0 {
        fill: #fff;
      }
    </style>
  </defs>
  <path class="st0" d="M2448.1,238.7h-770.3c-26.8,0-48.5,21.7-48.5,48.5v326.3l-435,204.3c-20.6-28.1-53.6-46.4-91-46.4-62.2,0-112.9,50.6-112.9,112.9s1.7,22.5,4.9,32.9H454.5c-26.8,0-48.5,21.7-48.5,48.5v793.7c0,26.8,21.7,48.5,48.5,48.5h371.6l326.5,474.6c-19.8,20.4-32.1,48.1-32.1,78.7,0,62.2,50.6,112.9,112.9,112.9s112.9-50.6,112.9-112.9-1.4-19.3-3.8-28.4l99.2-55.7v338.4c0,26.8,21.7,48.5,48.5,48.5h770.3c26.8,0,48.5-21.7,48.5-48.5v-793.7c0-26.8-21.7-48.5-48.5-48.5h-278.4c3.9-11.5,6.2-23.7,6.2-36.5,0-37.1-18.1-70-45.9-90.6l142.2-516.7h363.6c26.8,0,48.5-21.7,48.5-48.5V287.2c0-26.8-21.7-48.5-48.5-48.5ZM1203.4,1550.3c0,26.8-21.7,48.5-48.5,48.5h-630.5c-26.8,0-48.5-21.7-48.5-48.5v-501.9c0-26.8,21.7-48.5,48.5-48.5h630.5c26.8,0,48.5,21.7,48.5,48.5v501.9ZM1870.4,1624.2c-39.2,1.7-73.3,23.5-92.1,55.4l-504.9-230.7v-483.2c0-26.8-21.7-48.5-48.5-48.5h-13.8c2.6-8.4,4.3-17.2,4.8-26.3l413.5-194.2v384.2c0,26.8,21.7,48.5,48.5,48.5h328.6l-136.1,494.7ZM2426.8,871.8c0,26.8-21.7,48.5-48.5,48.5h-630.5c-26.8,0-48.5-21.7-48.5-48.5v-501.9c0-26.8,21.7-48.5,48.5-48.5h630.5c26.8,0,48.5,21.7,48.5,48.5v501.9ZM1560.1,1855.9h630.5c26.8,0,48.5,21.7,48.5,48.5v501.9c0,26.8-21.7,48.5-48.5,48.5h-630.5c-26.8,0-48.5-21.7-48.5-48.5v-501.9c0-26.8,21.7-48.5,48.5-48.5ZM1490.3,1773.3c-26.8,0-48.5,21.7-48.5,48.5v369l-141.7,79.6c-18.7-13.7-41.7-21.9-66.6-21.9s-8.3.3-12.4.7l-303.5-441.1h307.2c26.8,0,48.5-21.7,48.5-48.5v-227.7l491,224.3c1,5.9,2.6,11.7,4.5,17.2h-278.5ZM1103.3,932.1c-26.4,0-47.8-21.5-47.8-47.8s21.5-47.8,47.8-47.8,47.8,21.5,47.8,47.8-21.5,47.8-47.8,47.8ZM1233.4,2409.1c-26.4,0-47.8-21.5-47.8-47.8s21.5-47.8,47.8-47.8,47.8,21.5,47.8,47.8-21.5,47.8-47.8,47.8ZM1875.4,1784.6c-26.4,0-47.8-21.5-47.8-47.8s21.5-47.8,47.8-47.8,47.8,21.5,47.8,47.8-21.5,47.8-47.8,47.8Z"/>
  <path class="st0" d="M992.2,1369l154,150.5c11.2,12.5,2.3,32.3-14.5,32.3h-584.1c-10.7,0-19.4-8.7-19.4-19.4v-62.7l183.5-234.3c7.8-9.4,22.2-9.3,29.9,0l151.4,197.5,71.7-65.4c8-7.3,20.3-6.6,27.5,1.4ZM977.2,1110.8c-43.6,0-78.9,35.3-78.9,78.9s35.3,78.9,78.9,78.9,78.9-35.3,78.9-78.9-35.3-78.9-78.9-78.9Z"/>
  <path class="st0" d="M2180.5,533.1c0,64.9-52.6,117.5-117.5,117.5s-117.5-52.6-117.5-117.5,52.6-117.5,117.5-117.5,117.5,52.6,117.5,117.5ZM2105.9,697.8h-85.7c-95.1,0-172.2,77.1-172.2,172.2v18.1h430.1v-18.1c0-95.1-77.1-172.2-172.2-172.2Z"/>
  <path class="st0" d="M1976,2019.1c2.5,13.9,14.6,24.5,29.3,24.5h63.1c28.2,0,51.1,22.9,51.1,51.1v241.1c0,28.2-22.9,51.1-51.1,51.1h-386c-28.2,0-51.1-22.9-51.1-51.1v-241.1c0-28.2,22.9-51.1,51.1-51.1h65c15,0,27.4-11.1,29.4-25.5.4-3.2,1.9-6.1,4-8.5l2.2-2.5c2.2-2.5,3.5-5.6,4.4-8.9,2-7.5,8.9-13.1,17-13.1h141.8c8.1,0,14.9,5.5,17,12.9s2.3,6.3,4.8,8.6l2.9,2.7c2.7,2.6,4.4,6,5.1,9.6ZM1875.4,2079.9c-72.6,0-131.4,58.8-131.4,131.4s58.8,131.4,131.4,131.4,131.4-58.8,131.4-131.4-58.8-131.4-131.4-131.4ZM1875.4,2137c-41,0-74.2,33.2-74.2,74.2s33.2,74.2,74.2,74.2,74.2-33.2,74.2-74.2-33.2-74.2-74.2-74.2Z"/>
</svg>